# xmcd
#
# Track frame offsets:
#	150
#	19378
#	34355
#	52785
#	69508
#	97895
#	111905
#	132253
#	151625
#	162208
#
# Disc length: 2470 seconds
#
# Revision: 0
# Processed by: cddbd v1.5.2PL0 Copyright (c) Steve Scherf et al.
# Submitted via: audiograbber 1.83.01
#
DISCID=7709a40a
DTITLE=Alice Cooper - The Studio Albums 1969-1983 [CD 06) - Billion Dollar Babi
DTITLE=es
DYEAR=1973
DGENRE=Rock
TTITLE0=Hello Hooray
TTITLE1=Raped And Freezin'
TTITLE2=Elected
TTITLE3=Billion Dollar Babies
TTITLE4=Unfinished Sweet
TTITLE5=No More Mr. Nice Guy
TTITLE6=Generation Landslide
TTITLE7=Sick Things
TTITLE8=Mary Ann
TTITLE9=I Love The Dead
EXTD=
EXTT0=
EXTT1=
EXTT2=
EXTT3=
EXTT4=
EXTT5=
EXTT6=
EXTT7=
EXTT8=
EXTT9=
PLAYORDER=
